<svg width="175" height="98" viewBox="0 0 175 98" fill="none" xmlns="http://www.w3.org/2000/svg">
<g style="mix-blend-mode:color">
<path d="M22.2271 93.4485C28.6671 97.4425 31.694 97.0284 40.3421 97.0284H134.54C143.188 97.0284 146.215 97.4425 152.655 93.4485C159.095 89.4544 160.894 83.5966 161.713 81.3159C162.531 79.0351 173.208 26.4958 173.727 22.5528L173.751 22.3717C174.268 18.4384 174.996 12.909 173.26 9.49826C171.497 6.03481 168.881 4.46222 163.192 3.67397C157.503 2.88573 121.937 0.290771 87.4412 0.290771C52.9449 0.290771 17.3798 2.88573 11.6905 3.67397C6.0012 4.46222 3.38528 6.03481 1.62223 9.49826C-0.140819 12.9617 0.637005 18.6098 1.15555 22.5528C1.67409 26.4958 12.3509 79.0351 13.1696 81.3159C13.9883 83.5966 15.7871 89.4544 22.2271 93.4485Z" fill="url(#paint0_linear_38_619)"/>
</g>
<defs>
<linearGradient id="paint0_linear_38_619" x1="87.4412" y1="0.290771" x2="87.4412" y2="97.0406" gradientUnits="userSpaceOnUse">
<stop stop-color="#DADEE6"/>
<stop offset="0.0664116" stop-color="#EDF0F9"/>
<stop offset="1" stop-color="#DADDE5"/>
</linearGradient>
</defs>
</svg>
