<svg width="32" height="40" viewBox="0 0 32 40" fill="none" xmlns="http://www.w3.org/2000/svg">
<g opacity="0.5" filter="url(#filter0_i_38_527)">
<path fill-rule="evenodd" clip-rule="evenodd" d="M3.0897 14.3281C3.27255 12.1409 4.53726 10.379 5.14676 9.77142C5.14676 9.77142 12.0036 1.79725 14.2892 1.11375C14.9749 0.885916 15.8891 0.885901 15.8891 0.885901C15.8891 0.885901 16.8034 0.885917 17.4891 1.11375C19.7747 1.87319 26.6315 9.77142 26.6315 9.77142C27.241 10.379 28.5057 12.1409 28.6886 14.3281C28.9171 17.0621 29.3743 23.4415 29.3743 26.6311C29.3743 29.8208 26.1827 33.0618 22.0603 33.694C19.089 34.1497 16.5749 34.1497 15.8891 34.1497C15.2035 34.1497 12.6893 34.1497 9.71798 33.694C5.59563 33.0618 2.40401 29.8208 2.40402 26.6311C2.40402 23.4414 2.86114 17.0621 3.0897 14.3281ZM22.0772 31.4785C20.3813 31.8713 18.4052 31.8713 15.8891 31.8713L15.8856 31.8713C13.3695 31.8713 11.3934 31.8713 9.69749 31.4785C8.00155 31.0856 6.90363 30.4893 5.80318 29.3924C4.70274 28.2954 4.1829 26.5986 4.1829 25.0893C4.1829 23.9917 4.51007 20.3812 4.77666 17.4393C4.87662 16.3361 4.96807 15.327 5.03055 14.5796C5.17345 12.8703 5.84976 11.3226 6.27458 10.8992L6.31534 10.8585L6.35303 10.8151L6.37083 10.7947L6.42656 10.7309C6.4759 10.6745 6.54913 10.591 6.64347 10.4841C6.83219 10.2703 7.10516 9.96314 7.44013 9.59174C7.5843 9.43189 7.73233 9.26642 7.88565 9.09502C8.44567 8.46899 9.07637 7.76395 9.84831 6.96517C10.1917 6.60985 10.4818 6.29339 10.7527 5.99783C11.2606 5.44375 11.7012 4.96312 12.2993 4.43762C12.4633 4.2935 12.6163 4.15709 12.7666 4.0231C13.037 3.78202 13.2987 3.54876 13.6 3.29241C13.9703 3.02925 14.1286 2.91682 14.4106 2.78691C14.5951 2.70193 15.0157 2.70514 15.357 2.70775C15.4132 2.70818 15.4673 2.70859 15.5177 2.70859L16.257 2.70859C16.3075 2.70859 16.3615 2.70818 16.4177 2.70775C16.759 2.70514 17.1796 2.70193 17.3641 2.78691C17.6462 2.91682 17.8044 3.02925 18.1748 3.29241C18.476 3.54876 18.7377 3.78203 19.0081 4.0231C19.1584 4.1571 19.3114 4.2935 19.4755 4.43762C20.0735 4.96312 20.5141 5.44375 21.022 5.99783C21.2929 6.29339 21.583 6.60985 21.9264 6.96517C22.6983 7.76395 23.329 8.46899 23.8891 9.09501C24.0424 9.26641 24.1904 9.43189 24.3346 9.59174C24.6696 9.96314 24.9425 10.2703 25.1312 10.4841C25.2256 10.591 25.2988 10.6745 25.3482 10.7309L25.4039 10.7947L25.4217 10.8151L25.4594 10.8585L25.5001 10.8992C25.925 11.3226 26.6013 12.8703 26.7442 14.5796C26.8066 15.327 26.8981 16.3361 26.9981 17.4393C27.2646 20.3812 27.5918 23.9917 27.5918 25.0893C27.5918 26.5986 27.072 28.2954 25.9715 29.3924C24.8711 30.4893 23.7732 31.0856 22.0772 31.4785Z" fill="url(#paint0_linear_38_527)"/>
</g>
<g opacity="0.5" filter="url(#filter1_d_38_527)">
<path d="M15.8891 31.8713C18.4052 31.8713 20.3813 31.8713 22.0772 31.4785C23.7731 31.0856 24.8711 30.4893 25.9715 29.3924C27.072 28.2954 27.5918 26.5986 27.5918 25.0893C27.5918 23.5801 26.9732 17.32 26.7441 14.5796C26.6013 12.8703 25.9249 11.3226 25.5001 10.8992L25.4594 10.8585L25.4217 10.8151L25.4039 10.7947L25.3481 10.7309C25.2988 10.6745 25.2256 10.591 25.1312 10.4841C24.9425 10.2703 24.6695 9.96314 24.3346 9.59175C23.6638 8.84802 22.9097 7.98265 21.9264 6.96517C20.9393 5.94374 20.3925 5.24345 19.4754 4.43763C19.0163 4.03421 18.6435 3.69124 18.1747 3.29242C17.8044 3.02925 17.6462 2.91683 17.3641 2.78691C17.1492 2.68795 16.6141 2.70859 16.257 2.70859L15.5177 2.70859C15.1606 2.70859 14.6255 2.68795 14.4106 2.78691C14.1285 2.91683 13.9703 3.02925 13.5999 3.29242C13.1312 3.69124 12.7584 4.03421 12.2993 4.43763C11.3822 5.24344 10.8354 5.94374 9.84829 6.96517C8.86502 7.98265 8.1109 8.84802 7.44011 9.59175C7.10514 9.96314 6.83218 10.2703 6.64346 10.4841C6.54911 10.591 6.47588 10.6745 6.42654 10.7309L6.37082 10.7947L6.35302 10.8151L6.31533 10.8585L6.27456 10.8992C5.84975 11.3226 5.17343 12.8703 5.03054 14.5796C4.80144 17.32 4.18288 23.5801 4.18288 25.0893C4.18288 26.5986 4.70273 28.2954 5.80317 29.3924C6.90361 30.4893 8.00153 31.0856 9.69747 31.4785C11.3934 31.8713 13.3695 31.8713 15.8856 31.8713L15.8891 31.8713Z" fill="#DBDEE7"/>
<path d="M23.9491 12.1697L23.9963 12.2241L24.0361 12.2637C24.0481 12.2825 24.0681 12.3154 24.0952 12.3654C24.1675 12.4987 24.2581 12.6952 24.3505 12.9468C24.5366 13.4534 24.6964 14.0917 24.7511 14.7462C24.8137 15.4953 24.9065 16.5199 25.0074 17.6331C25.0908 18.5535 25.1797 19.5345 25.2615 20.4704C25.4488 22.6131 25.5918 24.4449 25.5918 25.0893C25.5918 26.2229 25.1859 27.3515 24.5596 27.9759C23.7478 28.7851 22.9932 29.2133 21.6259 29.5301C20.2003 29.8603 18.4803 29.8713 15.8891 29.8713L15.8856 29.8713C13.2944 29.8713 11.5744 29.8603 10.1488 29.5301C8.78145 29.2133 8.02693 28.7851 7.21513 27.9759C6.58875 27.3515 6.18288 26.2229 6.18288 25.0893C6.18288 24.4449 6.32585 22.6131 6.5132 20.4704C6.59502 19.5345 6.68389 18.5536 6.76727 17.6332C6.86813 16.52 6.96096 15.4953 7.02359 14.7462C7.0783 14.0917 7.23809 13.4534 7.42419 12.9468C7.51661 12.6952 7.60722 12.4987 7.67945 12.3654C7.70656 12.3154 7.72659 12.2825 7.7386 12.2637L7.77834 12.2241L7.82557 12.1697L7.86161 12.1282L7.86326 12.1263L7.87717 12.1103L7.87942 12.1077L7.93171 12.0479C7.93176 12.0478 7.93181 12.0477 7.93186 12.0477C7.97939 11.9934 8.05063 11.9122 8.14283 11.8077C8.3275 11.5985 8.59569 11.2967 8.92528 10.9313C9.07787 10.7621 9.23145 10.5904 9.38831 10.4151C9.94543 9.79236 10.5439 9.12336 11.2865 8.355C11.7221 7.90421 12.0416 7.55436 12.3168 7.25302C12.7651 6.76221 13.0958 6.40008 13.6194 5.94004C13.8073 5.7749 13.9692 5.63053 14.1221 5.49418C14.3587 5.28316 14.5737 5.09137 14.8304 4.87162C14.943 4.79179 15.0124 4.74312 15.0657 4.70743C15.1104 4.70682 15.1604 4.70669 15.2168 4.7069C15.2576 4.70705 15.2977 4.70736 15.341 4.70769L15.3613 4.70784C15.4104 4.70821 15.4647 4.70859 15.5177 4.70859L16.257 4.70859C16.31 4.70859 16.3643 4.70821 16.4133 4.70784C16.4429 4.70762 16.4708 4.7074 16.4982 4.70722C16.5182 4.70709 16.538 4.70697 16.5579 4.7069C16.6143 4.70669 16.6643 4.70683 16.709 4.70744C16.7623 4.74312 16.8317 4.7918 16.9443 4.87162C17.201 5.09138 17.416 5.28317 17.6526 5.4942C17.8055 5.63054 17.9674 5.77491 18.1553 5.94004C18.6789 6.40008 19.0096 6.76221 19.4578 7.25302C19.7331 7.55436 20.0526 7.9042 20.4882 8.355C21.2307 9.12334 21.8292 9.79233 22.3863 10.415C22.5432 10.5904 22.6968 10.7621 22.8494 10.9313C23.179 11.2967 23.4472 11.5985 23.6319 11.8077C23.7241 11.9123 23.7954 11.9935 23.843 12.0479L23.8953 12.1077L23.8975 12.1103L23.9114 12.1263L23.9131 12.1282L23.9491 12.1697ZM15.2473 4.60351C15.2468 4.60371 15.2464 4.60392 15.2459 4.60413C15.2464 4.60392 15.2468 4.60372 15.2473 4.60351L15.2473 4.60351Z" stroke="url(#paint1_linear_38_527)" stroke-width="4"/>
</g>
<path d="M7.52982 12.0509C7.56831 11.9799 7.59466 11.939 7.6066 11.9211L8.79986 10.5825C8.95171 10.4141 9.10482 10.243 9.26139 10.068L9.26148 10.0679C9.81885 9.44486 10.4201 8.77276 11.1652 8.00181C11.5923 7.55987 11.9095 7.21265 12.1848 6.91137L12.1848 6.91133C12.6387 6.41452 12.9784 6.04267 13.5083 5.57706C13.694 5.41392 13.855 5.27031 14.0076 5.13422L14.008 5.13385C14.2476 4.92018 14.4664 4.72505 14.7271 4.50203C14.7732 4.4693 14.8125 4.44149 14.8468 4.41746C14.9554 4.34119 15.0847 4.30121 15.2174 4.3017C15.2592 4.30186 15.3004 4.30218 15.3445 4.30251L15.3626 4.30265C15.4116 4.30302 15.4654 4.3034 15.5177 4.3034L16.257 4.3034C16.3093 4.3034 16.3631 4.30302 16.4121 4.30265L16.4313 4.3025C16.475 4.30217 16.5158 4.30186 16.5573 4.3017C16.69 4.30121 16.8193 4.34119 16.9279 4.41746C16.9621 4.44149 17.0015 4.4693 17.0476 4.50203C17.3083 4.72503 17.5271 4.92016 17.7666 5.13381L17.7667 5.13389L17.7667 5.13393C17.9194 5.2701 18.0805 5.41381 18.2663 5.57706C18.7962 6.04267 19.136 6.41452 19.5899 6.91132L19.5899 6.91133L19.5899 6.91136C19.8652 7.21264 20.1824 7.55986 20.6095 8.00182C21.3546 8.77279 21.9559 9.44491 22.5133 10.0679L22.5133 10.068L22.5134 10.068C22.6699 10.243 22.823 10.4141 22.9748 10.5825C23.3049 10.9484 23.5735 11.2507 23.7585 11.4603C23.851 11.5651 23.9225 11.6465 23.9701 11.701L24.1198 11.873L24.1681 11.9211C24.18 11.939 24.2064 11.9799 24.2449 12.0509C24.3219 12.193 24.4159 12.3976 24.5108 12.656C24.7018 13.1759 24.8657 13.8303 24.922 14.5031C24.9846 15.252 25.0773 16.2751 25.178 17.3874L25.1781 17.3875C25.2614 18.3078 25.3503 19.2891 25.4323 20.2265C25.6193 22.3651 25.7633 24.2069 25.7633 24.8615C25.7633 26.0299 25.3467 27.2097 24.6786 27.8757C23.8417 28.7099 23.0579 29.1522 21.6633 29.4752C20.2153 29.8107 18.474 29.8208 15.8891 29.8208L15.8856 29.8208C13.3007 29.8208 11.5594 29.8107 10.1114 29.4752C8.71678 29.1522 7.933 28.7099 7.09611 27.8757C6.42797 27.2097 6.01138 26.0299 6.01138 24.8615C6.01138 24.2069 6.15541 22.3651 6.34239 20.2265C6.42432 19.2893 6.51321 18.3082 6.59657 17.3881L6.59664 17.3873C6.69741 16.2751 6.79011 15.252 6.85271 14.5031C6.90896 13.8303 7.07286 13.1759 7.26385 12.656C7.35877 12.3976 7.45283 12.193 7.52982 12.0509Z" fill="url(#paint2_linear_38_527)"/>
<path d="M19.3175 22.3023L15.8891 25.9476L12.4607 22.3023L19.3175 22.3023Z" fill="#9A9DA2"/>
<defs>
<filter id="filter0_i_38_527" x="2.40405" y="0.885864" width="26.9702" height="33.2638" filterUnits="userSpaceOnUse" color-interpolation-filters="sRGB">
<feFlood flood-opacity="0" result="BackgroundImageFix"/>
<feBlend mode="normal" in="SourceGraphic" in2="BackgroundImageFix" result="shape"/>
<feColorMatrix in="SourceAlpha" type="matrix" values="0 0 0 0 0 0 0 0 0 0 0 0 0 0 0 0 0 0 127 0" result="hardAlpha"/>
<feOffset/>
<feGaussianBlur stdDeviation="1.5"/>
<feComposite in2="hardAlpha" operator="arithmetic" k2="-1" k3="1"/>
<feColorMatrix type="matrix" values="0 0 0 0 0 0 0 0 0 0 0 0 0 0 0 0 0 0 0.8 0"/>
<feBlend mode="normal" in2="shape" result="effect1_innerShadow_38_527"/>
</filter>
<filter id="filter1_d_38_527" x="0.182861" y="2.70679" width="31.4089" height="37.1646" filterUnits="userSpaceOnUse" color-interpolation-filters="sRGB">
<feFlood flood-opacity="0" result="BackgroundImageFix"/>
<feColorMatrix in="SourceAlpha" type="matrix" values="0 0 0 0 0 0 0 0 0 0 0 0 0 0 0 0 0 0 127 0" result="hardAlpha"/>
<feOffset dy="4"/>
<feGaussianBlur stdDeviation="2"/>
<feColorMatrix type="matrix" values="0 0 0 0 0 0 0 0 0 0 0 0 0 0 0 0 0 0 0.25 0"/>
<feBlend mode="normal" in2="BackgroundImageFix" result="effect1_dropShadow_38_527"/>
<feBlend mode="normal" in="SourceGraphic" in2="effect1_dropShadow_38_527" result="shape"/>
</filter>
<linearGradient id="paint0_linear_38_527" x1="15.8891" y1="34.1497" x2="15.8891" y2="0.885901" gradientUnits="userSpaceOnUse">
<stop stop-color="#6E717A"/>
<stop offset="1" stop-color="#2D2F33"/>
</linearGradient>
<linearGradient id="paint1_linear_38_527" x1="15.8873" y1="31.8713" x2="15.8873" y2="2.7068" gradientUnits="userSpaceOnUse">
<stop stop-color="#BBBDCA" stop-opacity="0"/>
<stop offset="1" stop-color="#BBBDCA"/>
</linearGradient>
<linearGradient id="paint2_linear_38_527" x1="15.8873" y1="29.8208" x2="15.8873" y2="4.30161" gradientUnits="userSpaceOnUse">
<stop stop-color="white" stop-opacity="0"/>
<stop offset="0.432292" stop-color="#EEF0F7" stop-opacity="0.8"/>
<stop offset="1" stop-color="#ECECED"/>
</linearGradient>
</defs>
</svg>
