<svg width="39" height="25" viewBox="0 0 39 25" fill="none" xmlns="http://www.w3.org/2000/svg">
<path fill-rule="evenodd" clip-rule="evenodd" d="M14.0885 16.9781H19.9608H24.9115L28.6572 22.5806C29.7324 24.1712 31.6937 25.1004 33.7615 24.9914C36.9635 24.8231 39.3385 22.2737 38.9604 19.4238L37.3062 7.13411C36.9635 4.535 35.2857 2.22691 32.7808 0.879729C30.5004 -0.347864 27.6292 -0.286482 25.4197 1.03741L23.3283 2.28511H19.9608H15.6717L13.5803 1.03741C11.3708 -0.286482 8.4996 -0.347864 6.21918 0.879729C3.71425 2.22691 2.03647 4.535 1.69382 7.13411L0.039593 19.4238C-0.338509 22.2737 2.03647 24.8231 5.23853 24.9914C7.30627 25.1004 9.26761 24.1712 10.3428 22.5806L14.0885 16.9781Z" fill="white"/>
</svg>
