<svg width="38" height="34" viewBox="0 0 38 34" fill="none" xmlns="http://www.w3.org/2000/svg">
<g opacity="0.5" filter="url(#filter0_i_38_529)">
<path fill-rule="evenodd" clip-rule="evenodd" d="M22.0614 0.798374C24.2556 0.980643 26.0231 2.24132 26.6326 2.84888C26.6326 2.84888 34.6322 9.6839 35.3179 11.9622C35.5465 12.6457 35.5465 13.5571 35.5465 13.5571C35.5465 13.5571 35.5465 14.4684 35.3179 15.1519C34.5561 17.4302 26.6326 24.2653 26.6326 24.2653C26.0231 24.8728 24.2556 26.1335 22.0614 26.3158C19.3186 26.5436 12.9189 26.9993 9.71906 26.9993C6.5192 26.9993 3.26788 23.8178 2.63365 19.7086C2.17652 16.7468 2.17651 14.2406 2.17651 13.5571C2.17651 12.8736 2.17651 10.3674 2.63365 7.40556C3.26788 3.29633 6.5192 0.114874 9.71906 0.114874C12.9189 0.114874 19.3186 0.570542 22.0614 0.798374ZM4.85625 19.7255C4.46213 18.0349 4.46212 16.0651 4.46211 13.5571L4.46211 13.5535C4.46212 11.0455 4.46213 9.07566 4.85625 7.38513C5.25036 5.69459 5.84855 4.60016 6.94899 3.50322C8.04944 2.40628 9.75172 1.8881 11.2658 1.8881C12.3669 1.8881 15.989 2.21423 18.9402 2.47996C20.0469 2.57961 21.0593 2.67077 21.8091 2.73305C23.5238 2.87549 25.0765 3.54965 25.5013 3.97311L25.542 4.01375L25.5856 4.05132L25.6061 4.06906L25.6701 4.12461C25.7267 4.17379 25.8104 4.24679 25.9176 4.34083C26.1321 4.52895 26.4403 4.80105 26.8129 5.13495C26.9732 5.27868 27.1392 5.42624 27.3112 5.57908C27.9392 6.13731 28.6465 6.766 29.4478 7.53546C29.8043 7.87775 30.1217 8.16691 30.4182 8.43699C30.9741 8.94328 31.4563 9.38246 31.9834 9.97862C32.128 10.1421 32.2649 10.2947 32.3993 10.4445C32.6412 10.7141 32.8752 10.9749 33.1323 11.2752C33.3963 11.6444 33.5091 11.8021 33.6394 12.0833C33.7247 12.2672 33.7214 12.6864 33.7188 13.0266C33.7184 13.0827 33.718 13.1365 33.718 13.1868L33.718 13.9237C33.718 13.9741 33.7184 14.0279 33.7188 14.0839C33.7214 14.4241 33.7247 14.8434 33.6394 15.0273C33.5091 15.3085 33.3963 15.4662 33.1323 15.8354C32.8752 16.1357 32.6411 16.3965 32.3993 16.6661C32.2649 16.8159 32.128 16.9685 31.9834 17.132C31.4563 17.7281 30.9741 18.1673 30.4183 18.6736C30.1217 18.9437 29.8043 19.2328 29.4478 19.5751C28.6465 20.3446 27.9392 20.9733 27.3112 21.5315C27.1392 21.6843 26.9732 21.8319 26.8129 21.9756C26.4403 22.3095 26.1321 22.5816 25.9176 22.7698C25.8104 22.8638 25.7267 22.9368 25.6701 22.986L25.6061 23.0415L25.5856 23.0593L25.542 23.0968L25.5013 23.1375C25.0765 23.5609 23.5238 24.2351 21.8091 24.3775C21.0593 24.4398 20.0469 24.531 18.9402 24.6306C15.989 24.8964 12.3669 25.2225 11.2658 25.2225C9.75172 25.2225 8.04944 24.7043 6.94899 23.6074C5.84855 22.5104 5.25036 21.416 4.85625 19.7255Z" fill="url(#paint0_linear_38_529)"/>
</g>
<g opacity="0.5" filter="url(#filter1_d_38_529)">
<path d="M4.46216 13.5571C4.46217 16.0652 4.46218 18.035 4.85629 19.7255C5.25041 21.416 5.84859 22.5105 6.94904 23.6074C8.04948 24.7043 9.75176 25.2225 11.2658 25.2225C12.7799 25.2225 19.0599 24.606 21.8091 24.3776C23.5239 24.2351 25.0765 23.561 25.5013 23.1375L25.5421 23.0969L25.5856 23.0593L25.6061 23.0416L25.6701 22.986C25.7267 22.9368 25.8104 22.8638 25.9177 22.7698C26.1321 22.5817 26.4403 22.3096 26.8129 21.9757C27.559 21.307 28.4271 20.5553 29.4479 19.5752C30.4726 18.5912 31.1751 18.0462 31.9835 17.132C32.3882 16.6743 32.7323 16.3027 33.1323 15.8355C33.3964 15.4663 33.5091 15.3085 33.6395 15.0274C33.7387 14.8132 33.718 14.2798 33.718 13.9238L33.718 13.1869C33.718 12.8309 33.7387 12.2975 33.6395 12.0833C33.5091 11.8021 33.3964 11.6444 33.1323 11.2752C32.7323 10.808 32.3882 10.4363 31.9835 9.97867C31.1751 9.0645 30.4726 8.51946 29.4479 7.53551C28.4271 6.55537 27.559 5.80365 26.8129 5.135C26.4403 4.8011 26.1321 4.529 25.9177 4.34088C25.8104 4.24684 25.7267 4.17384 25.6701 4.12466L25.6061 4.06911L25.5856 4.05137L25.5421 4.0138L25.5013 3.97316C25.0765 3.5497 23.5239 2.87554 21.8091 2.7331C19.0599 2.50472 12.7799 1.88814 11.2658 1.88814C9.75176 1.88814 8.04948 2.40633 6.94904 3.50327C5.84859 4.60021 5.25041 5.69464 4.85629 7.38518C4.46218 9.0757 4.46217 11.0455 4.46216 13.5536L4.46216 13.5571Z" fill="#DBDEE7"/>
<path d="M24.2357 21.5825L24.1812 21.6295L24.1412 21.6693C24.1223 21.6814 24.089 21.7016 24.0381 21.729C23.9039 21.8013 23.7062 21.8918 23.4532 21.9842C22.9439 22.1701 22.302 22.3297 21.6436 22.3844C20.8921 22.4469 19.8643 22.5394 18.7477 22.6399C17.8243 22.723 16.8402 22.8116 15.9012 22.8932C13.752 23.0799 11.9134 23.2225 11.2658 23.2225C10.124 23.2225 8.98828 22.8162 8.36099 22.1909C7.54937 21.3819 7.12109 20.6313 6.80406 19.2714C6.47334 17.8528 6.46217 16.1407 6.46216 13.5571L6.46216 13.5536C6.46217 10.97 6.47334 9.25785 6.80406 7.83926C7.12109 6.47939 7.54937 5.72878 8.36099 4.91974C8.98828 4.29444 10.124 3.88814 11.2658 3.88814C11.9134 3.88814 13.752 4.03077 15.9012 4.21748C16.8402 4.29905 17.8244 4.38765 18.7477 4.47077C19.8644 4.57129 20.8921 4.66381 21.6436 4.72623C22.302 4.78093 22.9439 4.94062 23.4532 5.12652C23.7062 5.21885 23.9039 5.30943 24.0381 5.38171C24.089 5.4091 24.1223 5.4293 24.1412 5.44133L24.1812 5.48114L24.2357 5.52818L24.2773 5.56411L24.2792 5.56575L24.2953 5.57959L24.2979 5.58185L24.3579 5.63398C24.4124 5.68137 24.4939 5.75244 24.5988 5.84444C24.8087 6.02852 25.1115 6.29586 25.4781 6.62441C25.6478 6.77652 25.8201 6.92963 25.996 7.08602C26.6207 7.64134 27.2918 8.23797 28.0626 8.97811C28.5149 9.41237 28.8658 9.73087 29.1681 10.0052C29.6605 10.452 30.0238 10.7817 30.4852 11.3035C30.651 11.4909 30.7958 11.6523 30.9326 11.8047C31.1442 12.0405 31.3366 12.2547 31.5569 12.5106C31.6354 12.6205 31.6838 12.689 31.7193 12.7416C31.7198 12.7847 31.7199 12.8328 31.7197 12.8868C31.7196 12.928 31.7193 12.9684 31.7189 13.0122L31.7188 13.0309C31.7184 13.0797 31.718 13.1339 31.718 13.1869L31.718 13.9238C31.718 13.9768 31.7184 14.0309 31.7188 14.0798C31.7192 14.1309 31.7196 14.1769 31.7197 14.2238C31.7199 14.2779 31.7198 14.326 31.7193 14.3691C31.6838 14.4217 31.6354 14.4902 31.5569 14.6001C31.3366 14.856 31.1442 15.0702 30.9326 15.306C30.7958 15.4584 30.6509 15.6197 30.4853 15.8071C30.0238 16.329 29.6605 16.6587 29.1681 17.1055C28.8658 17.3798 28.5149 17.6983 28.0626 18.1326C27.2918 18.8727 26.6207 19.4693 25.996 20.0247C25.8201 20.1811 25.6478 20.3342 25.4781 20.4863C25.1115 20.8148 24.8087 21.0822 24.5988 21.2662C24.4939 21.3582 24.4124 21.4293 24.3579 21.4767L24.2978 21.5289L24.2952 21.5311L24.2793 21.5449L24.2773 21.5466L24.2357 21.5825ZM24.0893 5.38962L24.0894 5.38966C24.0894 5.38965 24.0894 5.38964 24.0893 5.38962ZM31.8249 12.9244C31.8248 12.9241 31.8247 12.9238 31.8245 12.9236L31.8249 12.9244Z" stroke="url(#paint1_linear_38_529)" stroke-width="4"/>
</g>
<path d="M24.3458 5.22434C24.417 5.2627 24.458 5.28897 24.476 5.30088L25.8189 6.49034C25.9878 6.64166 26.1594 6.79424 26.3349 6.95026L26.3351 6.9504C26.9601 7.50601 27.6344 8.10541 28.4078 8.84811C28.8512 9.27386 29.1996 9.5901 29.5018 9.86449L29.5018 9.86452C30.0002 10.317 30.3732 10.6556 30.8403 11.1838C31.0041 11.3691 31.1483 11.5297 31.2849 11.6819C31.4993 11.9207 31.6951 12.1388 31.9188 12.3987C31.9517 12.4448 31.9797 12.4841 32.0039 12.5183C32.0802 12.6264 32.1203 12.7552 32.1198 12.8874C32.1196 12.9348 32.1192 12.9813 32.1188 13.0322C32.1184 13.0811 32.1181 13.1346 32.1181 13.1868L32.1181 13.9237C32.1181 13.9759 32.1184 14.0295 32.1188 14.0783L32.119 14.0974C32.1193 14.141 32.1196 14.1817 32.1198 14.2231C32.1203 14.3553 32.0802 14.4841 32.0039 14.5922C31.9797 14.6264 31.9517 14.6657 31.9188 14.7118C31.695 14.9717 31.4993 15.1898 31.2849 15.4286C31.1483 15.5808 31.0041 15.7415 30.8403 15.9267C30.3732 16.4549 30.0002 16.7936 29.5018 17.246L29.5018 17.246C29.1996 17.5204 28.8512 17.8367 28.4078 18.2624C27.6344 19.0051 26.9601 19.6045 26.3351 20.1601L26.3347 20.1604C26.1593 20.3164 25.9877 20.4689 25.8189 20.6202C25.4518 20.9492 25.1485 21.2169 24.9383 21.4014C24.8332 21.4936 24.7515 21.5648 24.6968 21.6123L24.5243 21.7615L24.476 21.8096C24.458 21.8215 24.417 21.8478 24.3458 21.8862C24.2033 21.9629 23.998 22.0567 23.7388 22.1513C23.2172 22.3417 22.5607 22.5051 21.8858 22.5611C21.1345 22.6235 20.108 22.7159 18.9922 22.8164L18.9922 22.8164C18.0689 22.8995 17.0845 22.9881 16.1441 23.0698C13.9987 23.2562 12.151 23.3998 11.4943 23.3998C10.3222 23.3998 9.13863 22.9845 8.47049 22.3185C7.6336 21.4843 7.18992 20.703 6.86584 19.3128C6.52933 17.8694 6.51917 16.1337 6.51917 13.557L6.51917 13.5535C6.51917 10.9768 6.52933 9.24109 6.86584 7.79767C7.18992 6.40752 7.6336 5.62624 8.47049 4.79201C9.13863 4.126 10.3222 3.71073 11.4943 3.71073C12.151 3.71073 13.9987 3.85431 16.1441 4.04069C17.0845 4.12239 18.069 4.21102 18.9923 4.29414C20.1081 4.39458 21.1345 4.48698 21.8858 4.54939C22.5607 4.60546 23.2172 4.76884 23.7388 4.95922C23.998 5.05383 24.2033 5.14759 24.3458 5.22434Z" fill="url(#paint2_linear_38_529)"/>
<path d="M14.0618 16.9746L10.4048 13.5571L14.0618 10.1396L14.0618 16.9746Z" fill="#9A9DA2"/>
<defs>
<filter id="filter0_i_38_529" x="2.17651" y="0.114868" width="33.37" height="26.8844" filterUnits="userSpaceOnUse" color-interpolation-filters="sRGB">
<feFlood flood-opacity="0" result="BackgroundImageFix"/>
<feBlend mode="normal" in="SourceGraphic" in2="BackgroundImageFix" result="shape"/>
<feColorMatrix in="SourceAlpha" type="matrix" values="0 0 0 0 0 0 0 0 0 0 0 0 0 0 0 0 0 0 127 0" result="hardAlpha"/>
<feOffset/>
<feGaussianBlur stdDeviation="1.5"/>
<feComposite in2="hardAlpha" operator="arithmetic" k2="-1" k3="1"/>
<feColorMatrix type="matrix" values="0 0 0 0 0 0 0 0 0 0 0 0 0 0 0 0 0 0 0.8 0"/>
<feBlend mode="normal" in2="shape" result="effect1_innerShadow_38_529"/>
</filter>
<filter id="filter1_d_38_529" x="0.462158" y="1.88818" width="37.2577" height="31.3344" filterUnits="userSpaceOnUse" color-interpolation-filters="sRGB">
<feFlood flood-opacity="0" result="BackgroundImageFix"/>
<feColorMatrix in="SourceAlpha" type="matrix" values="0 0 0 0 0 0 0 0 0 0 0 0 0 0 0 0 0 0 127 0" result="hardAlpha"/>
<feOffset dy="4"/>
<feGaussianBlur stdDeviation="2"/>
<feColorMatrix type="matrix" values="0 0 0 0 0 0 0 0 0 0 0 0 0 0 0 0 0 0 0.25 0"/>
<feBlend mode="normal" in2="BackgroundImageFix" result="effect1_dropShadow_38_529"/>
<feBlend mode="normal" in="SourceGraphic" in2="effect1_dropShadow_38_529" result="shape"/>
</filter>
<linearGradient id="paint0_linear_38_529" x1="2.17651" y1="13.5571" x2="35.5465" y2="13.5571" gradientUnits="userSpaceOnUse">
<stop stop-color="#6E717A"/>
<stop offset="1" stop-color="#2D2F33"/>
</linearGradient>
<linearGradient id="paint1_linear_38_529" x1="4.46216" y1="13.5553" x2="33.7198" y2="13.5553" gradientUnits="userSpaceOnUse">
<stop stop-color="#BBBDCA" stop-opacity="0"/>
<stop offset="1" stop-color="#BBBDCA"/>
</linearGradient>
<linearGradient id="paint2_linear_38_529" x1="6.51917" y1="13.5553" x2="32.1199" y2="13.5553" gradientUnits="userSpaceOnUse">
<stop stop-color="white" stop-opacity="0"/>
<stop offset="0.432292" stop-color="#EEF0F7" stop-opacity="0.8"/>
<stop offset="1" stop-color="#ECECED"/>
</linearGradient>
</defs>
</svg>
