<svg width="23" height="25" viewBox="0 0 23 25" fill="none" xmlns="http://www.w3.org/2000/svg">
<path d="M11.5 0C13.025 0 14.4875 0.65848 15.5659 1.83058C16.6442 3.00268 17.25 4.5924 17.25 6.25C17.25 7.9076 16.6442 9.49732 15.5659 10.6694C14.4875 11.8415 13.025 12.5 11.5 12.5C9.97501 12.5 8.51247 11.8415 7.43414 10.6694C6.3558 9.49732 5.75 7.9076 5.75 6.25C5.75 4.5924 6.3558 3.00268 7.43414 1.83058C8.51247 0.65848 9.97501 0 11.5 0ZM11.5 3.125C10.7375 3.125 10.0062 3.45424 9.46707 4.04029C8.9279 4.62634 8.625 5.4212 8.625 6.25C8.625 7.0788 8.9279 7.87366 9.46707 8.45971C10.0062 9.04576 10.7375 9.375 11.5 9.375C12.2625 9.375 12.9938 9.04576 13.5329 8.45971C14.0721 7.87366 14.375 7.0788 14.375 6.25C14.375 5.4212 14.0721 4.62634 13.5329 4.04029C12.9938 3.45424 12.2625 3.125 11.5 3.125ZM11.5 14.0625C15.3381 14.0625 23 16.1406 23 20.3125V25H0V20.3125C0 16.1406 7.66187 14.0625 11.5 14.0625ZM11.5 17.0312C7.23062 17.0312 2.73125 19.3125 2.73125 20.3125V22.0313H20.2688V20.3125C20.2688 19.3125 15.7694 17.0312 11.5 17.0312Z" fill="white"/>
</svg>
