<svg width="30" height="24" viewBox="0 0 30 24" fill="none" xmlns="http://www.w3.org/2000/svg">
<g clip-path="url(#clip0_38_557)">
<path d="M16.9844 5.81626C16.9944 5.77874 17.0051 5.74954 17.0148 5.72742C17.1254 5.76551 17.1828 5.82787 17.2313 5.9419C17.3004 6.10426 17.3352 6.35124 17.3352 6.69668V13.0184V13.4332L17.7103 13.6129C19.1801 14.317 20.6485 14.3855 21.7749 13.6224C22.8904 12.8666 23.4557 11.4383 23.4558 9.62605C23.4577 7.81449 23.1382 6.3877 22.246 5.24842C21.3637 4.12173 19.9974 3.3754 18.136 2.74504L18.1349 2.74466C16.3354 2.13881 14.5047 1.62908 12.6506 1.21764C11.9587 1.0641 11.313 1.59224 11.313 2.28902V20.2971C11.313 20.7767 11.625 21.2011 12.0839 21.3455L15.5115 22.4242C16.2223 22.648 16.9465 22.1189 16.9465 21.3758V6.14472C16.9465 6.01006 16.9619 5.89973 16.9844 5.81626Z" stroke="#090909" stroke-width="3"/>
<mask id="mask0_38_557" style="mask-type:luminance" maskUnits="userSpaceOnUse" x="0" y="10" width="30" height="14">
<path d="M30 10.9135H0.441162V23.2271H30V10.9135Z" fill="white"/>
<path d="M17.2268 19.1754L24.1671 16.71C24.9538 16.4303 25.0757 16.0292 24.4367 15.8232C23.5794 15.6256 22.6835 15.6715 21.8513 15.9556L17.2268 17.5747V14.9989L17.4927 14.9106C18.5384 14.5728 19.6166 14.3434 20.7099 14.2261C22.7328 14.0204 24.7764 14.2631 26.6935 14.9363C28.7287 15.5803 28.9577 16.5223 28.4406 17.1737C27.9235 17.825 26.6566 18.2776 26.6566 18.2776L16.2125 21.8133C15.7993 21.9532 15.4549 21.4739 15.7209 21.1289L17.2268 19.1754ZM4.17935 18.9687C2.1025 18.3834 1.75762 17.1651 2.71169 16.4584C3.44687 15.98 4.24112 15.5976 5.07477 15.3209L11.221 13.1123V15.608L6.81774 17.1982C6.0361 17.4779 5.91871 17.8754 6.5499 18.0852C7.4015 18.283 8.2921 18.2371 9.11843 17.9527L11.2394 17.1798V19.4361L10.8174 19.5024C8.60485 19.8621 6.3373 19.6788 4.21247 18.9687" fill="black"/>
</mask>
<g mask="url(#mask0_38_557)">
<path d="M17.2269 19.1753L16.7827 17.9326L16.4152 18.0631L16.1775 18.3714L17.2269 19.1753ZM24.4368 15.8231L24.8441 14.5679L24.7902 14.5504L24.7349 14.5377L24.4368 15.8231ZM21.8514 15.9556L21.4226 14.7074L21.4177 14.7091L21.4128 14.7108L21.8514 15.9556ZM17.2269 17.5746H15.9034V19.4364L17.6655 18.8194L17.2269 17.5746ZM17.2269 14.9989L16.8085 13.7472L15.9034 14.0479V14.9989H17.2269ZM17.4928 14.9105L17.0848 13.6555L17.0796 13.6572L17.0744 13.6589L17.4928 14.9105ZM20.71 14.226L20.5757 12.9135L20.5721 12.9139L20.5683 12.9143L20.71 14.226ZM26.6936 14.9363L26.2537 16.1806L26.2733 16.1875L26.2932 16.1938L26.6936 14.9363ZM26.6567 18.2775L27.0824 19.5267L27.0928 19.5232L27.1032 19.5195L26.6567 18.2775ZM2.7118 16.4583L1.98833 15.3535L1.95464 15.3755L1.92234 15.3994L2.7118 16.4583ZM5.07488 15.3208L5.49312 16.5726L5.50848 16.5675L5.5237 16.562L5.07488 15.3208ZM11.2211 13.1123H12.5447V11.2343L10.7723 11.8711L11.2211 13.1123ZM11.2211 15.608L11.672 16.8484L12.5447 16.5332V15.608H11.2211ZM6.81785 17.1981L7.26507 18.4399L7.26868 18.4386L6.81785 17.1981ZM6.55001 18.0852L6.13129 19.3367L6.1897 19.3561L6.24965 19.3701L6.55001 18.0852ZM9.11854 17.9526L9.55045 19.1998L9.56174 19.1958L9.57299 19.1918L9.11854 17.9526ZM11.2395 17.1797H12.5631V15.2926L10.7851 15.9406L11.2395 17.1797ZM11.2395 19.4361L11.4455 20.7393L12.5631 20.5638V19.4361H11.2395ZM10.8175 19.5024L10.6116 18.1991L10.608 18.1997L10.6045 18.2002L10.8175 19.5024ZM17.6712 20.4181L24.6115 17.9527L23.7229 15.4672L16.7827 17.9326L17.6712 20.4181ZM24.6115 17.9527C24.8823 17.8564 25.1592 17.7284 25.4026 17.5543C25.6222 17.3973 25.9576 17.1007 26.1033 16.6215C26.2826 16.0318 26.0858 15.4774 25.7444 15.1112C25.4591 14.8052 25.1038 14.6516 24.8441 14.5679L24.0295 17.0784C24.0893 17.0977 23.9583 17.0715 23.8053 16.9074C23.7186 16.8143 23.6154 16.6655 23.5604 16.4585C23.5036 16.2448 23.5158 16.0347 23.57 15.8563C23.621 15.6884 23.7006 15.5748 23.7528 15.5128C23.8053 15.4504 23.8481 15.4186 23.8595 15.4104C23.8788 15.3967 23.8454 15.4236 23.7229 15.4672L24.6115 17.9527ZM24.7349 14.5377C23.6367 14.2846 22.4889 14.3434 21.4226 14.7074L22.2802 17.2037C22.8783 16.9995 23.5224 16.9665 24.1387 17.1086L24.7349 14.5377ZM21.4128 14.7108L16.7883 16.3298L17.6655 18.8194L22.2899 17.2003L21.4128 14.7108ZM18.5504 17.5746V14.9989H15.9034V17.5746H18.5504ZM17.6454 16.2505L17.9113 16.1622L17.0744 13.6589L16.8085 13.7472L17.6454 16.2505ZM17.9009 16.1656C18.8599 15.8558 19.8488 15.6453 20.8516 15.5378L20.5683 12.9143C19.3845 13.0413 18.2171 13.2897 17.0848 13.6555L17.9009 16.1656ZM20.8443 15.5385C22.6732 15.3526 24.5208 15.572 26.2537 16.1806L27.1334 13.692C25.0323 12.954 22.7926 12.6882 20.5757 12.9135L20.8443 15.5385ZM26.2932 16.1938C26.7254 16.3306 27.0108 16.4676 27.19 16.5807C27.3712 16.695 27.4087 16.7624 27.3992 16.7471C27.3804 16.7169 27.343 16.6269 27.3554 16.5059C27.3664 16.3986 27.4081 16.3484 27.4029 16.3549L29.4786 17.9924C29.7319 17.6732 29.9389 17.261 29.9888 16.7738C30.0401 16.2728 29.9151 15.7849 29.6493 15.3573C29.1522 14.5575 28.2155 14.0336 27.094 13.6788L26.2932 16.1938ZM27.4029 16.3549C27.3315 16.4448 27.1057 16.6149 26.7518 16.7953C26.5993 16.8732 26.4576 16.9357 26.3544 16.9785C26.3034 16.9997 26.2632 17.0154 26.2377 17.0251C26.225 17.03 26.216 17.0334 26.2113 17.0351C26.2089 17.036 26.2076 17.0365 26.2074 17.0365C26.2073 17.0366 26.2075 17.0365 26.2079 17.0363C26.2082 17.0363 26.2085 17.0361 26.2089 17.036C26.2091 17.0359 26.2093 17.0359 26.2095 17.0358C26.2094 17.0358 26.2096 17.0357 26.2095 17.0358C26.2097 17.0357 26.2102 17.0355 26.6567 18.2775C27.1032 19.5195 27.1034 19.5194 27.1036 19.5193C27.1037 19.5193 27.1039 19.5192 27.1041 19.5192C27.1044 19.5191 27.1047 19.5189 27.105 19.5188C27.1057 19.5185 27.1065 19.5183 27.1073 19.518C27.1091 19.5174 27.111 19.5167 27.1134 19.5158C27.118 19.5141 27.1239 19.512 27.1309 19.5094C27.1449 19.5042 27.1637 19.4972 27.1866 19.4884C27.2324 19.4709 27.2953 19.4462 27.3711 19.4147C27.5216 19.3523 27.7289 19.261 27.9578 19.1443C28.3667 18.9357 29.0328 18.5538 29.4786 17.9924L27.4029 16.3549ZM26.2311 17.0283L15.787 20.564L16.6383 23.0625L27.0824 19.5267L26.2311 17.0283ZM16.7704 21.9328L18.2764 19.9793L16.1775 18.3714L14.6715 20.325L16.7704 21.9328ZM4.53952 17.699C4.12135 17.5812 3.84606 17.4465 3.67862 17.3342C3.5081 17.2199 3.48579 17.1543 3.50009 17.1837C3.52353 17.2319 3.54721 17.34 3.51057 17.4576C3.47933 17.5579 3.43565 17.5658 3.50127 17.5172L1.92234 15.3994C1.51091 15.7041 1.15257 16.1294 0.982564 16.6752C0.807154 17.2383 0.867971 17.8201 1.11797 18.3343C1.58763 19.3005 2.63584 19.9046 3.8194 20.2381L4.53952 17.699ZM3.43527 17.5631C4.07537 17.1465 4.76701 16.8136 5.49312 16.5726L4.65665 14.0691C3.71544 14.3816 2.8186 14.8132 1.98833 15.3535L3.43527 17.5631ZM5.5237 16.562L11.67 14.3534L10.7723 11.8711L4.62604 14.0797L5.5237 16.562ZM9.89761 13.1123V15.608H12.5447V13.1123H9.89761ZM10.7703 14.3675L6.36701 15.9577L7.26868 18.4386L11.672 16.8484L10.7703 14.3675ZM6.37067 15.9564C6.10137 16.0528 5.82577 16.1808 5.58308 16.3554C5.36355 16.5132 5.0298 16.8106 4.88605 17.29C4.71013 17.8765 4.90554 18.4258 5.24082 18.7898C5.52229 19.0953 5.87351 19.251 6.13129 19.3367L6.96873 16.8336C6.91093 16.8144 7.04011 16.8418 7.19046 17.005C7.27561 17.0974 7.37664 17.2446 7.43082 17.4488C7.48676 17.6596 7.47555 17.8678 7.42217 18.0458C7.37183 18.2136 7.29282 18.3277 7.24023 18.3907C7.18738 18.4539 7.14405 18.4864 7.13192 18.4952C7.11136 18.5099 7.14352 18.4834 7.26507 18.4399L6.37067 15.9564ZM6.24965 19.3701C7.34399 19.6243 8.4884 19.5652 9.55045 19.1998L8.68662 16.7055C8.09598 16.9088 7.45923 16.9417 6.85036 16.8003L6.24965 19.3701ZM9.57299 19.1918L11.694 18.4188L10.7851 15.9406L8.66408 16.7135L9.57299 19.1918ZM9.91601 17.1797V19.4361H12.5631V17.1797H9.91601ZM11.0336 18.1328L10.6116 18.1991L11.0234 20.8056L11.4455 20.7393L11.0336 18.1328ZM10.6045 18.2002C8.60417 18.5254 6.55411 18.3597 4.63333 17.7177L3.79182 20.2195C6.12065 20.9979 8.60576 21.1987 11.0305 20.8045L10.6045 18.2002ZM15.787 20.564C16.6136 20.2842 17.3023 21.2428 16.7704 21.9328L14.6715 20.325C13.6077 21.7049 14.9852 23.6221 16.6383 23.0625L15.787 20.564Z" fill="#090909"/>
</g>
<g filter="url(#filter0_d_38_557)">
<path d="M11.9747 20.6194V1.74634C13.9879 2.17138 15.9741 2.71341 17.9232 3.36962C21.5615 4.6018 22.7978 6.14472 22.794 9.62534C22.794 13.0184 20.6833 14.3053 17.997 13.0184V6.69667C17.997 5.95825 17.8604 5.27445 17.1556 5.08073C16.6169 4.90891 16.2847 5.41351 16.2847 6.14472V21.9758L11.9747 20.6194Z" fill="#1F2024"/>
</g>
<g filter="url(#filter1_d_38_557)">
<path d="M17.2268 19.1754L24.1671 16.71C24.9538 16.4303 25.0757 16.0292 24.4367 15.8232C23.5794 15.6256 22.6835 15.6715 21.8513 15.9556L17.2268 17.5747V14.9989L17.4927 14.9106C18.5384 14.5728 19.6166 14.3434 20.7099 14.2261C22.7328 14.0204 24.7764 14.2631 26.6935 14.9363C28.7287 15.5803 28.9577 16.5223 28.4406 17.1737C27.9235 17.825 26.6566 18.2776 26.6566 18.2776L17.2268 21.6631V19.1754ZM4.17935 18.9687C2.1025 18.3834 1.75762 17.1651 2.71169 16.4584C3.44687 15.98 4.24112 15.5976 5.07477 15.3209L11.221 13.1123V15.608L6.81774 17.1982C6.0361 17.4779 5.91871 17.8754 6.5499 18.0852C7.4015 18.283 8.2921 18.2371 9.11843 17.9527L11.2394 17.1798V19.4361L10.8174 19.5024C8.60485 19.8621 6.3373 19.6788 4.21247 18.9687" fill="#1F2024"/>
</g>
</g>
<defs>
<filter id="filter0_d_38_557" x="11.9747" y="1.74634" width="10.8193" height="21.2295" filterUnits="userSpaceOnUse" color-interpolation-filters="sRGB">
<feFlood flood-opacity="0" result="BackgroundImageFix"/>
<feColorMatrix in="SourceAlpha" type="matrix" values="0 0 0 0 0 0 0 0 0 0 0 0 0 0 0 0 0 0 127 0" result="hardAlpha"/>
<feOffset dy="1"/>
<feComposite in2="hardAlpha" operator="out"/>
<feColorMatrix type="matrix" values="0 0 0 0 0.607843 0 0 0 0 0.619608 0 0 0 0 0.639216 0 0 0 0.5 0"/>
<feBlend mode="normal" in2="BackgroundImageFix" result="effect1_dropShadow_38_557"/>
<feBlend mode="normal" in="SourceGraphic" in2="effect1_dropShadow_38_557" result="shape"/>
</filter>
<filter id="filter1_d_38_557" x="2.20581" y="13.1123" width="26.4706" height="9.55078" filterUnits="userSpaceOnUse" color-interpolation-filters="sRGB">
<feFlood flood-opacity="0" result="BackgroundImageFix"/>
<feColorMatrix in="SourceAlpha" type="matrix" values="0 0 0 0 0 0 0 0 0 0 0 0 0 0 0 0 0 0 127 0" result="hardAlpha"/>
<feOffset dy="1"/>
<feComposite in2="hardAlpha" operator="out"/>
<feColorMatrix type="matrix" values="0 0 0 0 0.607843 0 0 0 0 0.619608 0 0 0 0 0.639216 0 0 0 0.5 0"/>
<feBlend mode="normal" in2="BackgroundImageFix" result="effect1_dropShadow_38_557"/>
<feBlend mode="normal" in="SourceGraphic" in2="effect1_dropShadow_38_557" result="shape"/>
</filter>
<clipPath id="clip0_38_557">
<rect width="29.1176" height="22.8681" fill="white" transform="translate(0.882324 0.427002)"/>
</clipPath>
</defs>
</svg>
