<svg width="38" height="34" viewBox="0 0 38 34" fill="none" xmlns="http://www.w3.org/2000/svg">
<g opacity="0.5" filter="url(#filter0_i_38_528)">
<path fill-rule="evenodd" clip-rule="evenodd" d="M16.174 26.3158C13.9798 26.1335 12.2122 24.8728 11.6027 24.2653C11.6027 24.2653 3.60311 17.4302 2.91743 15.1519C2.68887 14.4684 2.68885 13.5571 2.68885 13.5571C2.68885 13.5571 2.68887 12.6457 2.91743 11.9622C3.67929 9.68389 11.6027 2.84887 11.6027 2.84887C12.2122 2.24132 13.9798 0.980636 16.174 0.798369C18.9167 0.570535 25.3164 0.114868 28.5163 0.114868C31.7162 0.114868 34.9675 3.29632 35.6017 7.40555C36.0588 10.3673 36.0588 12.8735 36.0588 13.5571C36.0588 14.2406 36.0588 16.7467 35.6017 19.7086C34.9675 23.8178 31.7162 26.9993 28.5163 26.9993C25.3164 26.9993 18.9167 26.5436 16.174 26.3158ZM33.3791 7.38868C33.7732 9.07921 33.7732 11.049 33.7732 13.5571L33.7732 13.5606C33.7732 16.0687 33.7732 18.0385 33.3791 19.729C32.985 21.4195 32.3868 22.514 31.2864 23.6109C30.1859 24.7079 28.4836 25.226 26.9696 25.226C25.8684 25.226 22.2464 24.8999 19.2951 24.6342C18.1884 24.5345 17.176 24.4434 16.4262 24.3811C14.7115 24.2386 13.1589 23.5645 12.7341 23.141L12.6933 23.1004L12.6498 23.0628L12.6292 23.0451L12.5652 22.9895C12.5087 22.9403 12.4249 22.8673 12.3177 22.7733C12.1033 22.5852 11.7951 22.3131 11.4225 21.9792C11.2621 21.8355 11.0961 21.6879 10.9242 21.5351C10.2961 20.9768 9.58886 20.3481 8.78753 19.5787C8.43108 19.2364 8.1136 18.9472 7.8171 18.6771C7.26126 18.1709 6.77909 17.7317 6.25191 17.1355C6.10732 16.972 5.97046 16.8195 5.83603 16.6696C5.5942 16.4001 5.3602 16.1393 5.10305 15.839C4.83904 15.4698 4.72626 15.3121 4.59593 15.0309C4.51068 14.8469 4.5139 14.4277 4.51652 14.0875C4.51695 14.0315 4.51736 13.9776 4.51736 13.9273L4.51736 13.1904C4.51736 13.1401 4.51695 13.0862 4.51652 13.0302C4.5139 12.69 4.51068 12.2707 4.59593 12.0868C4.72626 11.8056 4.83904 11.6479 5.10305 11.2787C5.3602 10.9784 5.59421 10.7176 5.83604 10.4481C5.97047 10.2982 6.10732 10.1457 6.25191 9.98217C6.77909 9.38602 7.26125 8.94684 7.8171 8.44054C8.11361 8.17047 8.43108 7.8813 8.78753 7.53901C9.58886 6.76955 10.2961 6.14086 10.9242 5.58263C11.0961 5.42979 11.2621 5.28223 11.4225 5.13851C11.7951 4.8046 12.1033 4.53251 12.3177 4.34438C12.4249 4.25034 12.5087 4.17734 12.5652 4.12816L12.6292 4.07262L12.6498 4.05487L12.6933 4.0173L12.7341 3.97666C13.1589 3.5532 14.7115 2.87904 16.4263 2.7366C17.176 2.67432 18.1884 2.58316 19.2951 2.48352C22.2464 2.21778 25.8684 1.89165 26.9696 1.89165C28.4836 1.89165 30.1859 2.40984 31.2864 3.50678C32.3868 4.60372 32.985 5.69814 33.3791 7.38868Z" fill="url(#paint0_linear_38_528)"/>
</g>
<g opacity="0.5" filter="url(#filter1_d_38_528)">
<path d="M33.7732 13.557C33.7732 11.049 33.7732 9.07916 33.3791 7.38863C32.9849 5.69809 32.3868 4.60367 31.2863 3.50673C30.1859 2.40979 28.4836 1.8916 26.9695 1.8916C25.4555 1.8916 19.1754 2.50818 16.4262 2.73655C14.7115 2.87899 13.1589 3.55315 12.734 3.97662L12.6933 4.01725L12.6497 4.05482L12.6292 4.07257L12.5652 4.12811C12.5086 4.1773 12.4249 4.2503 12.3177 4.34434C12.1032 4.53246 11.795 4.80455 11.4225 5.13846C10.6764 5.80711 9.80821 6.55883 8.78749 7.53897C7.7628 8.52292 7.06026 9.06796 6.25187 9.98213C5.84716 10.4398 5.5031 10.8114 5.103 11.2787C4.839 11.6479 4.72621 11.8056 4.59588 12.0868C4.4966 12.301 4.51732 12.8344 4.51732 13.1903L4.51732 13.9272C4.51732 14.2832 4.4966 14.8166 4.59588 15.0308C4.72621 15.312 4.839 15.4697 5.103 15.8389C5.5031 16.3061 5.84716 16.6778 6.25187 17.1355C7.06026 18.0496 7.7628 18.5947 8.78749 19.5786C9.80821 20.5588 10.6764 21.3105 11.4225 21.9791C11.795 22.313 12.1032 22.5851 12.3177 22.7733C12.4249 22.8673 12.5086 22.9403 12.5652 22.9895L12.6292 23.045L12.6497 23.0628L12.6933 23.1003L12.734 23.141C13.1589 23.5644 14.7115 24.2386 16.4262 24.381C19.1754 24.6094 25.4555 25.226 26.9695 25.226C28.4836 25.226 30.1859 24.7078 31.2863 23.6109C32.3868 22.5139 32.9849 21.4195 33.3791 19.729C33.7732 18.0384 33.7732 16.0686 33.7732 13.5606L33.7732 13.557Z" fill="#DBDEE7"/>
<path d="M13.9996 5.53165L14.0542 5.4846L14.0941 5.44479C14.1131 5.43276 14.1464 5.41256 14.1973 5.38516C14.3315 5.31288 14.5291 5.22231 14.7821 5.12998C15.2915 4.94408 15.9333 4.78439 16.5918 4.72969C17.3433 4.66727 18.371 4.57475 19.4877 4.47422C20.411 4.3911 21.3952 4.30251 22.3342 4.22093C24.4833 4.03422 26.322 3.8916 26.9695 3.8916C28.1114 3.8916 29.2471 4.2979 29.8744 4.92319C30.686 5.73224 31.1143 6.48285 31.4313 7.84272C31.762 9.26131 31.7732 10.9734 31.7732 13.557L31.7732 13.5606C31.7732 16.1441 31.762 17.8563 31.4313 19.2749C31.1143 20.6347 30.686 21.3854 29.8744 22.1944C29.2471 22.8197 28.1114 23.226 26.9695 23.226C26.322 23.226 24.4833 23.0834 22.3342 22.8967C21.3951 22.8151 20.411 22.7265 19.4876 22.6434C18.371 22.5428 17.3432 22.4503 16.5918 22.3879C15.9333 22.3332 15.2915 22.1735 14.7821 21.9876C14.5291 21.8953 14.3315 21.8047 14.1973 21.7324C14.1464 21.705 14.1131 21.6848 14.0941 21.6728L14.0542 21.633L13.9997 21.586L13.958 21.55L13.9561 21.5484L13.9401 21.5345L13.9375 21.5323L13.8774 21.4802C13.8229 21.4328 13.7414 21.3617 13.6365 21.2697C13.4267 21.0856 13.1238 20.8183 12.7572 20.4897C12.5875 20.3376 12.4153 20.1845 12.2394 20.0281C11.6147 19.4728 10.9435 18.8762 10.1727 18.136C9.72049 17.7018 9.36952 17.3833 9.06722 17.1089C8.57485 16.6621 8.21157 16.3324 7.7501 15.8106C7.5844 15.6232 7.43955 15.4618 7.30276 15.3094C7.09112 15.0737 6.89879 14.8594 6.6784 14.6036C6.59998 14.4937 6.55159 14.4251 6.51608 14.3725C6.51553 14.3294 6.51541 14.2813 6.51562 14.2273C6.51577 14.1862 6.51608 14.1457 6.51642 14.1019L6.51656 14.0833C6.51693 14.0344 6.51732 13.9802 6.51732 13.9272L6.51732 13.1903C6.51732 13.1374 6.51693 13.0832 6.51656 13.0343C6.51617 12.9832 6.51579 12.9372 6.51562 12.8903C6.51541 12.8363 6.51553 12.7882 6.51608 12.745C6.5516 12.6925 6.59998 12.6239 6.67841 12.514C6.8988 12.2582 7.09113 12.0439 7.30277 11.8081C7.43955 11.6558 7.5844 11.4944 7.7501 11.307C8.21157 10.7852 8.57485 10.4555 9.06722 10.0087C9.36953 9.73432 9.72049 9.41582 10.1727 8.98157C10.9435 8.24142 11.6147 7.64479 12.2394 7.08946C12.4153 6.93308 12.5875 6.77997 12.7572 6.62786C13.1238 6.29932 13.4267 6.03198 13.6365 5.84789C13.7414 5.75589 13.8229 5.68482 13.8774 5.63744L13.9375 5.58527L13.9401 5.58305L13.9561 5.56922L13.9581 5.56753L13.9996 5.53165ZM14.146 21.7245L14.146 21.7245C14.146 21.7245 14.146 21.7245 14.146 21.7245ZM6.41045 14.1898C6.41057 14.19 6.41069 14.1903 6.41082 14.1906L6.41045 14.1898Z" stroke="url(#paint1_linear_38_528)" stroke-width="4"/>
</g>
<path d="M13.8896 21.8898C13.8183 21.8514 13.7773 21.8252 13.7594 21.8133L12.4164 20.6238C12.2476 20.4725 12.0759 20.3199 11.9004 20.1639L11.9003 20.1637C11.2752 19.6081 10.601 19.0087 9.82752 18.266C9.38414 17.8403 9.0358 17.524 8.73355 17.2496L8.73352 17.2496C8.23514 16.7972 7.86211 16.4585 7.39502 15.9303C7.23122 15.7451 7.08703 15.5844 6.9504 15.4322C6.73605 15.1934 6.54029 14.9753 6.31656 14.7154C6.28361 14.6693 6.25564 14.63 6.23148 14.5958C6.15514 14.4878 6.1151 14.359 6.11559 14.2267C6.11577 14.1793 6.11616 14.1329 6.11654 14.082C6.11692 14.0331 6.11729 13.9795 6.11729 13.9273L6.11729 13.1904C6.11729 13.1382 6.11692 13.0847 6.11654 13.0358L6.1164 13.0167C6.11606 12.9731 6.11575 12.9324 6.11559 12.8911C6.1151 12.7588 6.15515 12.63 6.23148 12.5219C6.25564 12.4878 6.28361 12.4485 6.31656 12.4023C6.54031 12.1424 6.73607 11.9243 6.95044 11.6855C7.08706 11.5333 7.23124 11.3727 7.39502 11.1875C7.86212 10.6592 8.23516 10.3206 8.73354 9.86813L8.73356 9.86811C9.0358 9.59372 9.38414 9.27748 9.82752 8.85173C10.601 8.10904 11.2752 7.50964 11.9003 6.95402L11.9006 6.95371C12.0761 6.79774 12.2476 6.64523 12.4164 6.49396C12.7835 6.16495 13.0868 5.8972 13.2971 5.71276C13.4022 5.62058 13.4839 5.54934 13.5386 5.50181L13.7111 5.35261L13.7594 5.3045C13.7773 5.2926 13.8183 5.26633 13.8896 5.22796C14.0321 5.15122 14.2373 5.05745 14.4966 4.96284C15.0182 4.77246 15.6746 4.60908 16.3495 4.55301C17.1009 4.4906 18.1273 4.3982 19.2431 4.29775L19.2432 4.29774C20.1665 4.21463 21.1509 4.12601 22.0913 4.04431C24.2366 3.85793 26.0844 3.71436 26.741 3.71436C27.9132 3.71436 29.0967 4.12963 29.7649 4.79563C30.6018 5.62986 31.0454 6.41114 31.3695 7.80129C31.706 9.24472 31.7162 10.9804 31.7162 13.5571L31.7162 13.5606C31.7162 16.1373 31.706 17.873 31.3695 19.3165C31.0454 20.7066 30.6018 21.4879 29.7649 22.3221C29.0967 22.9881 27.9132 23.4034 26.741 23.4034C26.0844 23.4034 24.2366 23.2598 22.0913 23.0734C21.1508 22.9917 20.1663 22.9031 19.243 22.82C18.1272 22.7196 17.1008 22.6272 16.3495 22.5647C15.6746 22.5087 15.0182 22.3453 14.4966 22.1549C14.2373 22.0603 14.0321 21.9665 13.8896 21.8898Z" fill="url(#paint2_linear_38_528)"/>
<path d="M24.1736 10.1395L27.8306 13.557L24.1736 16.9746L24.1736 10.1395Z" fill="#9A9DA2"/>
<defs>
<filter id="filter0_i_38_528" x="2.68884" y="0.114868" width="33.37" height="26.8844" filterUnits="userSpaceOnUse" color-interpolation-filters="sRGB">
<feFlood flood-opacity="0" result="BackgroundImageFix"/>
<feBlend mode="normal" in="SourceGraphic" in2="BackgroundImageFix" result="shape"/>
<feColorMatrix in="SourceAlpha" type="matrix" values="0 0 0 0 0 0 0 0 0 0 0 0 0 0 0 0 0 0 127 0" result="hardAlpha"/>
<feOffset/>
<feGaussianBlur stdDeviation="1.5"/>
<feComposite in2="hardAlpha" operator="arithmetic" k2="-1" k3="1"/>
<feColorMatrix type="matrix" values="0 0 0 0 0 0 0 0 0 0 0 0 0 0 0 0 0 0 0.8 0"/>
<feBlend mode="normal" in2="shape" result="effect1_innerShadow_38_528"/>
</filter>
<filter id="filter1_d_38_528" x="0.515503" y="1.8916" width="37.2577" height="31.3344" filterUnits="userSpaceOnUse" color-interpolation-filters="sRGB">
<feFlood flood-opacity="0" result="BackgroundImageFix"/>
<feColorMatrix in="SourceAlpha" type="matrix" values="0 0 0 0 0 0 0 0 0 0 0 0 0 0 0 0 0 0 127 0" result="hardAlpha"/>
<feOffset dy="4"/>
<feGaussianBlur stdDeviation="2"/>
<feColorMatrix type="matrix" values="0 0 0 0 0 0 0 0 0 0 0 0 0 0 0 0 0 0 0.25 0"/>
<feBlend mode="normal" in2="BackgroundImageFix" result="effect1_dropShadow_38_528"/>
<feBlend mode="normal" in="SourceGraphic" in2="effect1_dropShadow_38_528" result="shape"/>
</filter>
<linearGradient id="paint0_linear_38_528" x1="36.0588" y1="13.5571" x2="2.68885" y2="13.5571" gradientUnits="userSpaceOnUse">
<stop stop-color="#6E717A"/>
<stop offset="1" stop-color="#2D2F33"/>
</linearGradient>
<linearGradient id="paint1_linear_38_528" x1="33.7732" y1="13.5588" x2="4.51552" y2="13.5588" gradientUnits="userSpaceOnUse">
<stop stop-color="#BBBDCA" stop-opacity="0"/>
<stop offset="1" stop-color="#BBBDCA"/>
</linearGradient>
<linearGradient id="paint2_linear_38_528" x1="31.7162" y1="13.5589" x2="6.1155" y2="13.5589" gradientUnits="userSpaceOnUse">
<stop stop-color="white" stop-opacity="0"/>
<stop offset="0.432292" stop-color="#EEF0F7" stop-opacity="0.8"/>
<stop offset="1" stop-color="#ECECED"/>
</linearGradient>
</defs>
</svg>
