<svg width="25" height="25" viewBox="0 0 25 25" fill="none" xmlns="http://www.w3.org/2000/svg">
<path d="M22.9574 13.3249C22.7534 13.0968 22.6409 12.8036 22.6409 12.5C22.6409 12.1964 22.7534 11.9032 22.9574 11.6751L24.586 9.87536C24.7654 9.67872 24.8769 9.4313 24.9043 9.16859C24.9317 8.90588 24.8737 8.64138 24.7386 8.41306L22.194 4.08864C22.0603 3.86058 21.8567 3.6798 21.6122 3.57207C21.3677 3.46435 21.0949 3.43518 20.8326 3.48873L18.4406 3.96366C18.1362 4.02544 17.8193 3.97565 17.5498 3.82368C17.2802 3.67171 17.0766 3.42809 16.9774 3.13877L16.2013 0.851584C16.1159 0.603342 15.9533 0.387728 15.7364 0.23522C15.5195 0.0827124 15.2593 0.00102336 14.9925 0.00169972H9.90318C9.62573 -0.0125259 9.35116 0.0628494 9.12141 0.216313C8.89167 0.369777 8.71937 0.592893 8.63084 0.851584L7.91833 3.13877C7.81909 3.42809 7.61548 3.67171 7.34593 3.82368C7.07637 3.97565 6.75951 4.02544 6.45515 3.96366L3.99953 3.48873C3.75086 3.45421 3.49734 3.49275 3.27093 3.59951C3.04451 3.70627 2.85532 3.87646 2.72719 4.08864L0.182518 8.41306C0.0440369 8.63884 -0.0182287 8.90185 0.0046231 9.16448C0.0274749 9.42712 0.134274 9.67593 0.309752 9.87536L1.92562 11.6751C2.1296 11.9032 2.2421 12.1964 2.2421 12.5C2.2421 12.8036 2.1296 13.0968 1.92562 13.3249L0.309752 15.1246C0.134274 15.3241 0.0274749 15.5729 0.0046231 15.8355C-0.0182287 16.0982 0.0440369 16.3612 0.182518 16.5869L2.72719 20.9114C2.86091 21.1394 3.06452 21.3202 3.30897 21.4279C3.55343 21.5357 3.82627 21.5648 4.0886 21.5113L6.48059 21.0363C6.78496 20.9746 7.10182 21.0244 7.37137 21.1763C7.64093 21.3283 7.84454 21.5719 7.94378 21.8612L8.71991 24.1484C8.80844 24.4071 8.98073 24.6302 9.21048 24.7837C9.44022 24.9371 9.71479 25.0125 9.99225 24.9983H15.0816C15.3483 24.999 15.6085 24.9173 15.8254 24.7648C16.0423 24.6123 16.205 24.3967 16.2903 24.1484L17.0664 21.8612C17.1657 21.5719 17.3693 21.3283 17.6389 21.1763C17.9084 21.0244 18.2253 20.9746 18.5296 21.0363L20.9216 21.5113C21.184 21.5648 21.4568 21.5357 21.7013 21.4279C21.9457 21.3202 22.1493 21.1394 22.283 20.9114L24.8277 16.5869C24.9628 16.3586 25.0208 16.0941 24.9934 15.8314C24.9659 15.5687 24.8545 15.3213 24.675 15.1246L22.9574 13.3249ZM21.0616 14.9997L22.0795 16.1245L20.4509 18.8991L18.9495 18.5992C18.0331 18.4152 17.0799 18.5681 16.2707 19.0289C15.4615 19.4897 14.8528 20.2262 14.5599 21.0988L14.0765 22.4986H10.8193L10.3612 21.0738C10.0684 20.2013 9.45962 19.4647 8.65044 19.0039C7.84127 18.5431 6.88802 18.3902 5.97166 18.5742L4.4703 18.8741L2.81626 16.112L3.83413 14.9872C4.46006 14.2997 4.80611 13.4098 4.80611 12.4875C4.80611 11.5652 4.46006 10.6753 3.83413 9.98784L2.81626 8.86299L4.44485 6.11337L5.94621 6.41333C6.86258 6.59733 7.81582 6.44442 8.625 5.98363C9.43417 5.52284 10.043 4.78625 10.3358 3.91367L10.8193 2.50136H14.0765L14.5599 3.92617C14.8528 4.79875 15.4615 5.53534 16.2707 5.99613C17.0799 6.45692 18.0331 6.60983 18.9495 6.42583L20.4509 6.12587L22.0795 8.90049L21.0616 10.0253C20.4427 10.7112 20.1009 11.596 20.1009 12.5125C20.1009 13.429 20.4427 14.3138 21.0616 14.9997ZM12.4479 7.50068C11.4413 7.50068 10.4573 7.79389 9.62037 8.34322C8.78343 8.89255 8.13111 9.67334 7.74591 10.5868C7.36071 11.5003 7.25992 12.5055 7.4563 13.4753C7.65267 14.4451 8.13738 15.3359 8.84914 16.0351C9.5609 16.7342 10.4677 17.2104 11.455 17.4033C12.4422 17.5962 13.4655 17.4972 14.3955 17.1188C15.3254 16.7404 16.1203 16.0996 16.6795 15.2775C17.2387 14.4553 17.5372 13.4888 17.5372 12.5C17.5372 11.1741 17.001 9.9025 16.0466 8.96495C15.0921 8.02739 13.7976 7.50068 12.4479 7.50068ZM12.4479 14.9997C11.9446 14.9997 11.4526 14.8531 11.0341 14.5784C10.6156 14.3037 10.2895 13.9133 10.0969 13.4566C9.90428 12.9998 9.85389 12.4972 9.95208 12.0123C10.0503 11.5275 10.2926 11.0821 10.6485 10.7325C11.0044 10.3829 11.4578 10.1448 11.9514 10.0484C12.445 9.95192 12.9567 10.0014 13.4217 10.1906C13.8866 10.3798 14.2841 10.7002 14.5637 11.1113C14.8433 11.5223 14.9925 12.0056 14.9925 12.5C14.9925 13.163 14.7244 13.7987 14.2472 14.2675C13.77 14.7363 13.1228 14.9997 12.4479 14.9997Z" fill="white"/>
</svg>
