<svg width="32" height="40" viewBox="0 0 32 40" fill="none" xmlns="http://www.w3.org/2000/svg">
<g opacity="0.5" filter="url(#filter0_i_38_526)">
<path fill-rule="evenodd" clip-rule="evenodd" d="M28.6885 20.3305C28.5056 22.5177 27.2409 24.2796 26.6314 24.8871C26.6314 24.8871 19.7746 32.8613 17.489 33.5448C16.8033 33.7727 15.8891 33.7727 15.8891 33.7727C15.8891 33.7727 14.9748 33.7727 14.2891 33.5448C12.0035 32.7854 5.14667 24.8871 5.14667 24.8871C4.53717 24.2796 3.27246 22.5177 3.08962 20.3305C2.86105 17.5965 2.40393 11.2171 2.40393 8.02744C2.40393 4.83777 5.59554 1.5968 9.7179 0.964593C12.6891 0.508918 15.2033 0.508911 15.8891 0.508911C16.5747 0.508911 19.0889 0.508911 22.0602 0.964593C26.1826 1.5968 29.3742 4.83777 29.3742 8.02744C29.3742 11.2171 28.9171 17.5965 28.6885 20.3305ZM9.70097 3.18011C11.3969 2.78725 13.373 2.78725 15.8891 2.78724H15.8926C18.4087 2.78725 20.3848 2.78725 22.0807 3.18011C23.7766 3.57298 24.8746 4.16926 25.975 5.2662C27.0755 6.36314 27.5953 8.06 27.5953 9.56924C27.5953 10.6669 27.2681 14.2773 27.0015 17.2192C26.9016 18.3224 26.8101 19.3316 26.7476 20.079C26.6048 21.7883 25.9284 23.3359 25.5036 23.7594L25.4629 23.8L25.4252 23.8435L25.4074 23.8639L25.3516 23.9277C25.3023 23.9841 25.2291 24.0676 25.1347 24.1744C24.946 24.3882 24.673 24.6954 24.3381 25.0668C24.1939 25.2267 24.0459 25.3922 23.8925 25.5635C23.3325 26.1896 22.7018 26.8946 21.9299 27.6934C21.5865 28.0487 21.2964 28.3652 21.0255 28.6607C20.5176 29.2148 20.077 29.6954 19.4789 30.2209C19.3149 30.3651 19.1619 30.5015 19.0116 30.6355C18.7412 30.8765 18.4795 31.1098 18.1782 31.3662C17.8079 31.6293 17.6497 31.7417 17.3676 31.8717C17.1831 31.9566 16.7625 31.9534 16.4212 31.9508C16.365 31.9504 16.3109 31.95 16.2605 31.95H15.5212C15.4707 31.95 15.4167 31.9504 15.3605 31.9508C15.0192 31.9534 14.5986 31.9566 14.4141 31.8717C14.132 31.7417 13.9738 31.6293 13.6034 31.3662C13.3022 31.1098 13.0405 30.8765 12.7701 30.6355C12.6198 30.5015 12.4668 30.3651 12.3027 30.2209C11.7047 29.6954 11.2641 29.2148 10.7562 28.6607C10.4853 28.3652 10.1952 28.0487 9.85179 27.6934C9.07986 26.8946 8.44916 26.1896 7.88914 25.5636C7.73582 25.3922 7.58779 25.2267 7.44361 25.0668C7.10864 24.6954 6.83568 24.3882 6.64696 24.1744C6.55261 24.0676 6.47938 23.9841 6.43004 23.9277L6.37432 23.8639L6.35652 23.8435L6.31883 23.8L6.27806 23.7594C5.85325 23.3359 5.17693 21.7883 5.03404 20.079C4.97156 19.3316 4.88011 18.3225 4.78015 17.2193C4.51356 14.2774 4.18639 10.6669 4.18639 9.56924C4.18639 8.06 4.70623 6.36314 5.80667 5.2662C6.90711 4.16926 8.00504 3.57298 9.70097 3.18011Z" fill="url(#paint0_linear_38_526)"/>
</g>
<g opacity="0.5" filter="url(#filter1_d_38_526)">
<path d="M15.8891 2.78723C13.373 2.78724 11.3969 2.78725 9.70099 3.18011C8.00505 3.57297 6.90713 4.16925 5.80669 5.26619C4.70624 6.36313 4.1864 8.05999 4.1864 9.56924C4.1864 11.0785 4.80495 17.3385 5.03405 20.079C5.17695 21.7883 5.85326 23.3359 6.27808 23.7594L6.31884 23.8L6.35653 23.8435L6.37433 23.8639L6.43006 23.9277C6.4794 23.9841 6.55263 24.0676 6.64697 24.1744C6.83569 24.3882 7.10866 24.6954 7.44363 25.0668C8.11441 25.8105 8.86853 26.6759 9.8518 27.6934C10.8389 28.7148 11.3857 29.4151 12.3028 30.2209C12.7619 30.6244 13.1347 30.9673 13.6035 31.3661C13.9738 31.6293 14.132 31.7417 14.4141 31.8717C14.629 31.9706 15.1641 31.95 15.5212 31.95H16.2605C16.6176 31.95 17.1527 31.9706 17.3676 31.8717C17.6497 31.7417 17.8079 31.6293 18.1783 31.3661C18.647 30.9673 19.0198 30.6244 19.479 30.2209C20.396 29.4151 20.9428 28.7148 21.9299 27.6934C22.9132 26.6759 23.6673 25.8105 24.3381 25.0668C24.6731 24.6954 24.946 24.3882 25.1347 24.1744C25.2291 24.0676 25.3023 23.9841 25.3517 23.9277L25.4074 23.8639L25.4252 23.8435L25.4629 23.8L25.5036 23.7594C25.9285 23.3359 26.6048 21.7883 26.7477 20.079C26.9768 17.3385 27.5953 11.0785 27.5953 9.56924C27.5953 8.05999 27.0755 6.36313 25.975 5.26619C24.8746 4.16925 23.7767 3.57297 22.0807 3.18011C20.3848 2.78725 18.4087 2.78724 15.8926 2.78723H15.8891Z" fill="#DBDEE7"/>
<path d="M7.8291 22.4889L7.78186 22.4345L7.74212 22.3949C7.73011 22.376 7.71008 22.3432 7.68296 22.2931C7.61074 22.1599 7.52012 21.9634 7.42771 21.7118C7.2416 21.2051 7.08181 20.5668 7.0271 19.9124C6.96448 19.1633 6.87165 18.1387 6.7708 17.0255C6.68741 16.105 6.59854 15.1241 6.51671 14.1882C6.32937 12.0454 6.1864 10.2137 6.1864 9.56924C6.1864 8.43572 6.59226 7.30705 7.21864 6.68266C8.03045 5.87344 8.78496 5.44527 10.1523 5.12851C11.5779 4.79828 13.2979 4.78724 15.8891 4.78723H15.8926C18.4838 4.78724 20.2038 4.79828 21.6294 5.12851C22.9967 5.44526 23.7513 5.87344 24.5631 6.68266C25.1895 7.30705 25.5953 8.43572 25.5953 9.56924C25.5953 10.2137 25.4523 12.0454 25.265 14.1882C25.1832 15.124 25.0943 16.105 25.0109 17.0254C24.9101 18.1386 24.8172 19.1633 24.7546 19.9124C24.6999 20.5668 24.5401 21.2051 24.354 21.7118C24.2616 21.9634 24.171 22.1599 24.0988 22.2931C24.0716 22.3432 24.0516 22.376 24.0396 22.3949L23.9999 22.4345L23.9526 22.4889L23.9166 22.5304L23.9149 22.5323L23.901 22.5483L23.8988 22.5508L23.8465 22.6107C23.8464 22.6108 23.8464 22.6108 23.8463 22.6109C23.7988 22.6652 23.7276 22.7464 23.6354 22.8509C23.4507 23.06 23.1825 23.3619 22.8529 23.7273C22.7003 23.8965 22.5468 24.0682 22.3899 24.2435C21.8328 24.8662 21.2343 25.5352 20.4917 26.3036C20.0561 26.7544 19.7366 27.1042 19.4614 27.4055C19.0131 27.8964 18.6824 28.2585 18.1588 28.7185C17.9709 28.8837 17.809 29.028 17.6561 29.1644C17.4195 29.3754 17.2045 29.5672 16.9478 29.7869C16.8352 29.8668 16.7658 29.9154 16.7125 29.9511C16.6678 29.9517 16.6178 29.9519 16.5614 29.9517C16.5206 29.9515 16.4805 29.9512 16.4372 29.9509L16.4169 29.9507C16.3678 29.9504 16.3135 29.95 16.2605 29.95H15.5212C15.4682 29.95 15.4139 29.9504 15.3649 29.9507C15.3353 29.9509 15.3074 29.9512 15.28 29.9513C15.26 29.9515 15.2402 29.9516 15.2203 29.9517C15.1639 29.9519 15.1139 29.9517 15.0692 29.9511C15.0159 29.9154 14.9465 29.8668 14.8339 29.7869C14.5772 29.5672 14.3622 29.3754 14.1256 29.1644C13.9727 29.028 13.8108 28.8837 13.6229 28.7185C13.0993 28.2585 12.7686 27.8964 12.3204 27.4055C12.0451 27.1042 11.7256 26.7544 11.29 26.3036C10.5475 25.5352 9.94897 24.8662 9.39186 24.2435C9.23499 24.0682 9.08139 23.8965 8.92879 23.7273C8.59921 23.3619 8.33102 23.06 8.14635 22.8509C8.05405 22.7463 7.98275 22.665 7.93522 22.6107L7.88292 22.5508L7.88068 22.5483L7.86679 22.5323L7.86512 22.5304L7.8291 22.4889ZM24.0916 22.343L24.0916 22.343C24.0917 22.343 24.0917 22.343 24.0917 22.3429L24.0916 22.343ZM16.5309 30.0551C16.5314 30.0549 16.5318 30.0546 16.5323 30.0544C16.5318 30.0546 16.5314 30.0548 16.5309 30.0551L16.5309 30.0551Z" stroke="url(#paint1_linear_38_526)" stroke-width="4"/>
</g>
<path d="M24.2484 22.6076C24.2099 22.6787 24.1835 22.7195 24.1716 22.7374L22.9783 24.0761C22.8265 24.2445 22.6734 24.4156 22.5168 24.5906L22.5167 24.5907C21.9594 25.2137 21.3581 25.8858 20.613 26.6568C20.1859 27.0987 19.8687 27.4459 19.5934 27.7472L19.5934 27.7472C19.1395 28.244 18.7998 28.6159 18.2699 29.0815C18.0842 29.2446 17.9232 29.3883 17.7706 29.5243L17.7702 29.5247C17.5306 29.7384 17.3118 29.9335 17.0511 30.1565C17.005 30.1893 16.9657 30.2171 16.9314 30.2411C16.8228 30.3174 16.6935 30.3574 16.5608 30.3569C16.519 30.3567 16.4778 30.3564 16.4337 30.3561L16.4156 30.3559C16.3666 30.3555 16.3128 30.3552 16.2605 30.3552H15.5212C15.4689 30.3552 15.4151 30.3555 15.3661 30.3559L15.3469 30.3561C15.3032 30.3564 15.2624 30.3567 15.2209 30.3569C15.0882 30.3574 14.9589 30.3174 14.8503 30.2411C14.8161 30.2171 14.7767 30.1893 14.7306 30.1565C14.4699 29.9335 14.2512 29.7384 14.0116 29.5248L14.0115 29.5247L14.0115 29.5246C13.8588 29.3885 13.6977 29.2448 13.5119 29.0815C12.982 28.6159 12.6422 28.244 12.1883 27.7473L12.1883 27.7472L12.1883 27.7472C11.913 27.4459 11.5958 27.0987 11.1687 26.6568C10.4236 25.8858 9.82232 25.2137 9.26494 24.5906L9.26491 24.5906L9.26484 24.5905C9.10829 24.4156 8.95521 24.2444 8.80337 24.0761C8.47332 23.7101 8.20471 23.4078 8.01968 23.1982C7.9272 23.0935 7.85574 23.012 7.80806 22.9575L7.65838 22.7855L7.61012 22.7374C7.59818 22.7195 7.57182 22.6787 7.53333 22.6076C7.45634 22.4656 7.36228 22.261 7.26736 22.0026C7.07638 21.4826 6.91247 20.8283 6.85623 20.1555C6.79362 19.4066 6.70092 18.3834 6.60016 17.2712L6.60014 17.2711C6.51676 16.3507 6.42786 15.3694 6.3459 14.432C6.15893 12.2935 6.01489 10.4516 6.01489 9.7971C6.01489 8.62867 6.43149 7.44889 7.09963 6.78288C7.93652 5.94865 8.72029 5.50639 10.1149 5.18334C11.5629 4.8479 13.3042 4.83778 15.8891 4.83777H15.8926C18.4775 4.83778 20.2188 4.8479 21.6668 5.18334C23.0614 5.50639 23.8452 5.94865 24.6821 6.78288C25.3502 7.44889 25.7668 8.62867 25.7668 9.7971C25.7668 10.4516 25.6228 12.2935 25.4358 14.432C25.3539 15.3692 25.265 16.3503 25.1816 17.2705L25.1816 17.2712C25.0808 18.3835 24.9881 19.4066 24.9255 20.1555C24.8692 20.8283 24.7053 21.4826 24.5144 22.0026C24.4194 22.261 24.3254 22.4656 24.2484 22.6076Z" fill="url(#paint2_linear_38_526)"/>
<path d="M12.4607 12.3563L15.8891 8.71094L19.3175 12.3563H12.4607Z" fill="#9A9DA2"/>
<defs>
<filter id="filter0_i_38_526" x="2.40393" y="0.508911" width="26.9702" height="33.2638" filterUnits="userSpaceOnUse" color-interpolation-filters="sRGB">
<feFlood flood-opacity="0" result="BackgroundImageFix"/>
<feBlend mode="normal" in="SourceGraphic" in2="BackgroundImageFix" result="shape"/>
<feColorMatrix in="SourceAlpha" type="matrix" values="0 0 0 0 0 0 0 0 0 0 0 0 0 0 0 0 0 0 127 0" result="hardAlpha"/>
<feOffset/>
<feGaussianBlur stdDeviation="1.5"/>
<feComposite in2="hardAlpha" operator="arithmetic" k2="-1" k3="1"/>
<feColorMatrix type="matrix" values="0 0 0 0 0 0 0 0 0 0 0 0 0 0 0 0 0 0 0.8 0"/>
<feBlend mode="normal" in2="shape" result="effect1_innerShadow_38_526"/>
</filter>
<filter id="filter1_d_38_526" x="0.186401" y="2.78723" width="31.4089" height="37.1646" filterUnits="userSpaceOnUse" color-interpolation-filters="sRGB">
<feFlood flood-opacity="0" result="BackgroundImageFix"/>
<feColorMatrix in="SourceAlpha" type="matrix" values="0 0 0 0 0 0 0 0 0 0 0 0 0 0 0 0 0 0 127 0" result="hardAlpha"/>
<feOffset dy="4"/>
<feGaussianBlur stdDeviation="2"/>
<feColorMatrix type="matrix" values="0 0 0 0 0 0 0 0 0 0 0 0 0 0 0 0 0 0 0.25 0"/>
<feBlend mode="normal" in2="BackgroundImageFix" result="effect1_dropShadow_38_526"/>
<feBlend mode="normal" in="SourceGraphic" in2="effect1_dropShadow_38_526" result="shape"/>
</filter>
<linearGradient id="paint0_linear_38_526" x1="15.8891" y1="0.508911" x2="15.8891" y2="33.7727" gradientUnits="userSpaceOnUse">
<stop stop-color="#6E717A"/>
<stop offset="1" stop-color="#2D2F33"/>
</linearGradient>
<linearGradient id="paint1_linear_38_526" x1="15.8909" y1="2.78723" x2="15.8909" y2="31.9518" gradientUnits="userSpaceOnUse">
<stop stop-color="#BBBDCA" stop-opacity="0"/>
<stop offset="1" stop-color="#BBBDCA"/>
</linearGradient>
<linearGradient id="paint2_linear_38_526" x1="15.8909" y1="4.83777" x2="15.8909" y2="30.357" gradientUnits="userSpaceOnUse">
<stop stop-color="white" stop-opacity="0"/>
<stop offset="0.432292" stop-color="#EEF0F7" stop-opacity="0.8"/>
<stop offset="1" stop-color="#ECECED"/>
</linearGradient>
</defs>
</svg>
